Coordinates
version=1
nRows=8
nColumns=28
inDegrees=yes

Units are S.I. units (second, meters, Newtons, ...)
Angles are in degrees.

endheader
time	pelvis_tilt	pelvis_list	pelvis_rotation	pelvis_tx	pelvis_ty	pelvis_tz	hip_flexion_r	hip_adduction_r	hip_rotation_r	knee_angle_r	ankle_angle_r	subtalar_angle_r	mtp_angle_r	hip_flexion_l	hip_adduction_l	hip_rotation_l	knee_angle_l	socket_flexion	socket_adduction	socket_rotation	socket_tx	socket_ty	socket_tz	foot_flex	lumbar_extension	lumbar_bending	lumbar_rotation
      0.00000000	     -1.80256149	     -6.26186563	     -7.77607959	     -0.87831944	      0.98956954	      0.26677954	    -22.99870060	      8.44332473	      1.83726833	     -3.80582987	     12.00416403	     -4.94410557	      7.54507660	     29.88977409	    -10.31840126	     10.34616401	     -4.60259324	      0.00000000	      0.00000000	      0.00000000	      0.00000000	      0.00000000	      0.00000000	     -0.63933004	    -10.00081561	      5.65247899	      9.34594090
      0.00416667	     -1.86362268	     -6.29316153	     -7.69435172	     -0.87287806	      0.98898842	      0.26634705	    -23.11756009	      8.45213982	      1.90981330	     -4.00745871	     11.97427523	     -4.93499343	      7.55356864	     29.76029271	    -10.22261912	     10.37004831	     -4.63996461	      0.00000000	      0.00000000	      0.00000000	      0.00000000	      0.00000000	      0.00000000	     -0.72201305	     -9.86505171	      5.68653922	      9.35354631
      0.00833333	     -1.91396961	     -6.33095993	     -7.68507465	     -0.86742883	      0.98853279	      0.26601671	    -23.07069856	      8.44053930	      1.85424545	     -4.57230078	     11.81187951	     -5.00264575	      7.58882677	     29.52425738	    -10.18601764	     10.48257320	     -4.48092821	      0.00000000	      0.00000000	      0.00000000	      0.00000000	      0.00000000	      0.00000000	     -1.18272594	     -9.81058003	      5.70968652	      9.34418457
      0.01250000	     -1.97946233	     -6.36240604	     -7.60072606	     -0.86154193	      0.98795747	      0.26555396	    -23.17455634	      8.44718091	      1.91164654	     -4.82569251	     11.75987035	     -5.00062317	      7.59431942	     29.36741651	    -10.08588348	     10.48771412	     -4.50687712	      0.00000000	      0.00000000	      0.00000000	      0.00000000	      0.00000000	      0.00000000	     -1.24601931	     -9.65895690	      5.75866620	      9.34910528
      0.01666667	     -2.04242706	     -6.38717338	     -7.64739828	     -0.85579466	      0.98756802	      0.26525893	    -22.99042807	      8.39659397	      1.74473510	     -5.64902406	     11.48751424	     -5.10149555	      7.63231286	     29.10390636	    -10.06310693	     10.52862706	     -4.34075440	      0.00000000	      0.00000000	      0.00000000	      0.00000000	      0.00000000	      0.00000000	     -1.69313944	     -9.61048055	      5.78188744	      9.32442645
      0.02083333	     -2.11040567	     -6.41388507	     -7.57077323	     -0.84960594	      0.98703070	      0.26480236	    -23.08851995	      8.39279731	      1.81148351	     -5.92303687	     11.43073961	     -5.09425656	      7.63921289	     28.93120865	     -9.95772481	     10.55650586	     -4.38852653	      0.00000000	      0.00000000	      0.00000000	      0.00000000	      0.00000000	      0.00000000	     -1.75601351	     -9.44079117	      5.81638919	      9.32785313
      0.02500000	     -2.20033269	     -6.40191458	     -7.61849638	     -0.84361375	      0.98664319	      0.26449641	    -22.83744514	      8.30626167	      1.62469869	     -6.82421451	     11.11671953	     -5.18325503	      7.68390455	     28.68344719	     -9.89666057	     10.62653975	     -4.23545963	      0.00000000	      0.00000000	      0.00000000	      0.00000000	      0.00000000	      0.00000000	     -2.20412547	     -9.36395225	      5.78926605	      9.29921364
      0.02916667	     -2.26848421	     -6.41182652	     -7.53310855	     -0.83721909	      0.98619533	      0.26402599	    -22.90256641	      8.28947759	      1.70074282	     -7.15769482	     11.03596439	     -5.17456083	      7.69385349	     28.49143903	     -9.77256138	     10.67933371	     -4.28314761	      0.00000000	      0.00000000	      0.00000000	      0.00000000	      0.00000000	      0.00000000	     -2.27472816	     -9.18234408	      5.81297377	      9.30038493
